<svg width="25" height="25" viewBox="0 0 25 25" fill="none" xmlns="http://www.w3.org/2000/svg">
<g clip-path="url(#clip0_28_404)">
<path d="M4.30476 12.6459C4.00518 11.231 4.00518 9.76908 4.30476 8.3542C5.46101 8.48962 6.47142 8.10733 6.80059 7.3115C7.1308 6.51462 6.68809 5.53025 5.77351 4.80837C6.56209 3.59621 7.59572 2.56258 8.80788 1.774C9.52872 2.68754 10.5141 3.13129 11.311 2.80108C12.1079 2.47087 12.4902 1.4615 12.3537 0.305246C13.7686 0.00567318 15.2305 0.00567318 16.6454 0.305246C16.51 1.4615 16.8923 2.47191 17.6881 2.80108C18.485 3.13129 19.4693 2.68858 20.1912 1.774C21.4034 2.56258 22.437 3.59621 23.2256 4.80837C22.312 5.5292 21.8683 6.51462 22.1985 7.3115C22.5287 8.10837 23.5381 8.49066 24.6943 8.3542C24.9939 9.76908 24.9939 11.231 24.6943 12.6459C23.5381 12.5105 22.5277 12.8927 22.1985 13.6886C21.8683 14.4855 22.311 15.4698 23.2256 16.1917C22.437 17.4039 21.4034 18.4375 20.1912 19.2261C19.4704 18.3125 18.485 17.8688 17.6881 18.199C16.8912 18.5292 16.5089 19.5386 16.6454 20.6948C15.2305 20.9944 13.7686 20.9944 12.3537 20.6948C12.4891 19.5386 12.1068 18.5282 11.311 18.199C10.5141 17.8688 9.52976 18.3115 8.80788 19.2261C7.59572 18.4375 6.56209 17.4039 5.77351 16.1917C6.68705 15.4709 7.1308 14.4855 6.80059 13.6886C6.47038 12.8917 5.46101 12.5094 4.30476 12.6459ZM6.16622 10.7188C7.31205 11.0365 8.25684 11.7625 8.72559 12.8917C9.1933 14.0219 9.03809 15.2042 8.45267 16.2375C8.55267 16.3438 8.6558 16.4469 8.76205 16.5469C9.79642 15.9615 10.9777 15.8073 12.1079 16.274C13.237 16.7427 13.9631 17.6875 14.2808 18.8334C14.4266 18.8375 14.5725 18.8375 14.7183 18.8334C15.036 17.6875 15.762 16.7427 16.8912 16.274C18.0214 15.8063 19.2037 15.9615 20.237 16.5469C20.3433 16.4469 20.4464 16.3438 20.5464 16.2375C19.961 15.2032 19.8068 14.0219 20.2735 12.8917C20.7423 11.7625 21.687 11.0365 22.8329 10.7188C22.837 10.573 22.837 10.4271 22.8329 10.2813C21.687 9.96358 20.7423 9.23754 20.2735 8.10837C19.8058 6.97816 19.961 5.79587 20.5464 4.76254C20.446 4.6567 20.3429 4.55354 20.237 4.45316C19.2027 5.03858 18.0214 5.19275 16.8912 4.72608C15.762 4.25733 15.036 3.31254 14.7183 2.1667C14.5725 2.16284 14.4266 2.16284 14.2808 2.1667C13.9631 3.31254 13.237 4.25733 12.1079 4.72608C10.9777 5.19379 9.79538 5.03858 8.76205 4.45316C8.6558 4.55316 8.55267 4.65629 8.45267 4.76254C9.03809 5.79691 9.19226 6.97816 8.72559 8.10837C8.25684 9.23754 7.31205 9.96358 6.16622 10.2813C6.16205 10.4271 6.16205 10.573 6.16622 10.7188ZM14.4995 13.625C13.6707 13.625 12.8759 13.2958 12.2898 12.7097C11.7038 12.1237 11.3745 11.3288 11.3745 10.5C11.3745 9.67124 11.7038 8.87638 12.2898 8.29033C12.8759 7.70428 13.6707 7.37504 14.4995 7.37504C15.3284 7.37504 16.1232 7.70428 16.7093 8.29033C17.2953 8.87638 17.6245 9.67124 17.6245 10.5C17.6245 11.3288 17.2953 12.1237 16.7093 12.7097C16.1232 13.2958 15.3284 13.625 14.4995 13.625ZM14.4995 11.5417C14.7758 11.5417 15.0408 11.432 15.2361 11.2366C15.4315 11.0413 15.5412 10.7763 15.5412 10.5C15.5412 10.2238 15.4315 9.95882 15.2361 9.76347C15.0408 9.56812 14.7758 9.45837 14.4995 9.45837C14.2233 9.45837 13.9583 9.56812 13.763 9.76347C13.5676 9.95882 13.4579 10.2238 13.4579 10.5C13.4579 10.7763 13.5676 11.0413 13.763 11.2366C13.9583 11.432 14.2233 11.5417 14.4995 11.5417Z" fill="black"/>
</g>
<defs>
<clipPath id="clip0_28_404">
<rect width="25" height="25" fill="white"/>
</clipPath>
</defs>
</svg>
