<svg width="25" height="26" viewBox="0 0 25 26" fill="none" xmlns="http://www.w3.org/2000/svg">
<g clip-path="url(#clip0_102_85)">
<path d="M5.20835 23.4692C4.93209 23.4692 4.66713 23.3591 4.47178 23.1633C4.27643 22.9674 4.16669 22.7018 4.16669 22.4249V3.6272C4.16669 3.35023 4.27643 3.0846 4.47178 2.88876C4.66713 2.69291 4.93209 2.58289 5.20835 2.58289H19.7917C20.068 2.58289 20.3329 2.69291 20.5283 2.88876C20.7236 3.0846 20.8334 3.35023 20.8334 3.6272V6.76014H18.75V4.67151H6.25002V21.3805H18.75V19.2919H20.8334V22.4249C20.8334 22.7018 20.7236 22.9674 20.5283 23.1633C20.3329 23.3591 20.068 23.4692 19.7917 23.4692H5.20835ZM18.75 17.2033V14.0703H11.4584V11.9817H18.75V8.84877L23.9584 13.026L18.75 17.2033Z" fill="black"/>
</g>
<defs>
<clipPath id="clip0_102_85">
<rect width="25" height="25.0635" fill="white" transform="translate(0 0.494263)"/>
</clipPath>
</defs>
</svg>
