<svg width="25" height="26" viewBox="0 0 25 26" fill="none" xmlns="http://www.w3.org/2000/svg">
<g clip-path="url(#clip0_102_68)">
<path d="M11.4167 23.5491C5.66354 23.5491 1 18.8737 1 13.106C1 7.33824 5.66354 2.66284 11.4167 2.66284C17.1698 2.66284 21.8333 7.33824 21.8333 13.106C21.8333 18.8737 17.1698 23.5491 11.4167 23.5491ZM6.22188 19.6392C7.6964 20.8211 9.52883 21.4635 11.4167 21.4605C13.4688 21.4605 15.3469 20.7169 16.799 19.4846C16.1205 18.7868 15.3094 18.2324 14.4136 17.8543C13.5177 17.4762 12.5553 17.282 11.5833 17.2832C10.5756 17.2821 9.57865 17.4909 8.65569 17.8965C7.73274 18.302 6.90394 18.8955 6.22188 19.6392ZM4.76667 18.1396C5.64214 17.2081 6.69862 16.4663 7.87098 15.9598C9.04334 15.4533 10.3068 15.1929 11.5833 15.1946C12.8142 15.193 14.0333 15.4352 15.1706 15.9072C16.3078 16.3793 17.3409 17.0719 18.2104 17.9453C19.1022 16.6871 19.6288 15.2057 19.7318 13.6656C19.8349 12.1256 19.5104 10.587 18.7943 9.22056C18.0782 7.85415 16.9985 6.71334 15.675 5.9247C14.3515 5.13606 12.8359 4.73041 11.2965 4.75278C9.757 4.77514 8.25381 5.22463 6.95367 6.05139C5.65352 6.87814 4.60725 8.04983 3.93093 9.43647C3.25461 10.8231 2.97468 12.3705 3.1222 13.9069C3.26973 15.4434 3.83893 16.9077 4.76667 18.1396ZM11.4167 14.1503C10.3116 14.1503 9.25179 13.7102 8.47039 12.9268C7.68899 12.1434 7.25 11.0809 7.25 9.97304C7.25 8.86516 7.68899 7.80266 8.47039 7.01927C9.25179 6.23589 10.3116 5.79578 11.4167 5.79578C12.5217 5.79578 13.5815 6.23589 14.3629 7.01927C15.1443 7.80266 15.5833 8.86516 15.5833 9.97304C15.5833 11.0809 15.1443 12.1434 14.3629 12.9268C13.5815 13.7102 12.5217 14.1503 11.4167 14.1503ZM11.4167 12.0617C11.9692 12.0617 12.4991 11.8416 12.8898 11.4499C13.2805 11.0582 13.5 10.527 13.5 9.97304C13.5 9.4191 13.2805 8.88785 12.8898 8.49616C12.4991 8.10446 11.9692 7.88441 11.4167 7.88441C10.8641 7.88441 10.3342 8.10446 9.94353 8.49616C9.55283 8.88785 9.33333 9.4191 9.33333 9.97304C9.33333 10.527 9.55283 11.0582 9.94353 11.4499C10.3342 11.8416 10.8641 12.0617 11.4167 12.0617Z" fill="black"/>
</g>
<defs>
<clipPath id="clip0_102_68">
<rect width="25" height="25.0635" fill="white" transform="translate(0 0.574341)"/>
</clipPath>
</defs>
</svg>
