<svg width="743" height="84" viewBox="0 0 743 84" fill="none" xmlns="http://www.w3.org/2000/svg">
<path d="M73.6368 53.542L68.8369 53.5069L68.6965 72.7064C65.8689 74.2857 61.7304 75.6955 56.2812 76.9357C50.8965 78.1123 45.0682 78.6777 38.7964 78.6318C26.8287 78.5443 17.4759 75.3398 10.7379 69.0184C4.00044 62.6329 0.679917 52.8484 0.776347 39.6647C0.875117 26.1611 4.30688 16.3619 11.0716 10.2672C17.9004 4.17301 27.5866 1.17178 40.1303 1.26352C46.2101 1.30799 51.9013 1.98964 57.2038 3.30846C62.5063 4.62728 66.4956 6.09649 69.1719 7.71611L69.004 30.6595L45.0047 30.484L45.0377 25.9721C45.0573 23.2842 44.4954 21.36 43.3519 20.1996C42.2728 18.9757 40.5173 18.3548 38.0853 18.337C35.6534 18.3192 33.857 18.9141 32.6961 20.1217C31.5997 21.2657 31.0417 23.1816 31.0221 25.8696L30.817 53.9008C30.7974 56.5887 31.3271 58.5447 32.4062 59.7686C33.5497 60.929 35.3374 61.5181 37.7694 61.5359C40.2013 61.5537 41.9655 60.9905 43.0619 59.8465C44.2227 58.639 44.813 56.6913 44.8327 54.0033L44.8376 53.3314L39.6537 53.2934L39.7583 38.9898L73.7414 39.2384L73.6368 53.542ZM117.37 23.1411C118.65 23.1504 119.865 23.2873 121.015 23.5517C122.165 23.8161 123.123 24.1432 123.888 24.5328L123.754 42.8683C121.138 41.7611 118.326 41.1965 115.318 41.1745C111.286 41.145 108.175 42.1783 105.983 44.2743C103.792 46.3704 102.681 49.4983 102.65 53.6582L102.589 62.01L111.229 62.0732L111.114 77.8168L76.1709 77.5612L76.2861 61.8176L80.51 61.8485L80.6701 39.9611L76.4462 39.9302L76.5613 24.1866L102.865 24.379L102.813 31.3868C104.625 28.712 106.688 26.679 109.002 25.2879C111.317 23.8328 114.106 23.1172 117.37 23.1411ZM155.2 79.4833C146.112 79.4168 139.026 76.9969 133.941 72.2236C128.856 67.3862 126.347 60.3917 126.414 51.24C126.481 42.0882 129.091 35.1631 134.246 30.4647C139.401 25.7023 146.522 23.3543 155.61 23.4208C164.634 23.4868 171.112 25.9022 175.046 30.6671C179.043 35.3685 181.017 41.2071 180.966 48.1829L180.915 55.0947L149.812 54.8672L149.808 55.4432C149.79 57.8111 150.481 59.5762 151.881 60.7385C153.281 61.8367 155.613 62.3978 158.877 62.4217C162.781 62.4502 166.495 62.1894 170.019 61.6392C173.543 61.0889 176.62 60.3754 179.251 59.4986L179.138 74.8582C176.89 76.0578 173.586 77.1537 169.226 78.1458C164.931 79.0744 160.256 79.5202 155.2 79.4833ZM161.025 44.3889L161.033 43.237C161.049 41.061 160.581 39.4895 159.628 38.5225C158.739 37.556 157.366 37.066 155.51 37.0524C153.654 37.0388 152.243 37.5405 151.275 38.5575C150.372 39.5109 149.913 41.0436 149.898 43.1555L149.889 44.3075L161.025 44.3889ZM212.198 79.9002C203.111 79.8337 196.024 77.4138 190.939 72.6405C185.854 67.8032 183.345 60.8086 183.412 51.6569C183.479 42.5051 186.09 35.58 191.244 30.8816C196.399 26.1192 203.521 23.7712 212.609 23.8377C221.632 23.9037 228.111 26.3191 232.044 31.084C236.042 35.7854 238.015 41.624 237.964 48.5998L237.914 55.5116L206.81 55.2841L206.806 55.8601C206.789 58.228 207.48 59.9931 208.879 61.1554C210.279 62.2537 212.611 62.8147 215.875 62.8386C219.779 62.8672 223.493 62.6063 227.017 62.0561C230.541 61.5058 233.619 60.7923 236.249 59.9155L236.137 75.2751C233.888 76.4747 230.584 77.5706 226.225 78.5627C221.93 79.4913 217.254 79.9371 212.198 79.9002ZM218.023 44.8058L218.032 43.6539C218.048 41.4779 217.579 39.9064 216.626 38.9395C215.737 37.9729 214.365 37.4829 212.509 37.4693C210.653 37.4557 209.241 37.9574 208.274 38.9744C207.371 39.9278 206.911 41.4605 206.896 43.5724L206.888 44.7244L218.023 44.8058ZM304.457 63.4865L304.342 79.2301L274.007 79.0082L274.122 63.2646L278.154 63.2941L278.269 47.5505C278.284 45.4386 277.848 43.8994 276.959 42.9328C276.07 41.9023 274.73 41.3805 272.938 41.3674C269.098 41.3393 267.163 43.3732 267.133 47.4691L267.018 63.2127L271.05 63.2422L270.935 78.9857L240.6 78.7639L240.715 63.0203L244.939 63.0512L245.099 41.1638L240.875 41.1329L240.99 25.3893L267.293 25.5817L267.238 33.0695C271.889 27.2153 277.671 24.3135 284.583 24.3641C289.894 24.403 293.85 26.0959 296.45 29.443C299.113 32.7906 300.424 37.3763 300.381 43.2002L300.233 63.4556L304.457 63.4865ZM336.529 63.7211L341.329 63.7562L341.645 20.5574L336.845 20.5223L336.96 4.77867L381.023 5.10097C389.023 5.15948 395.251 6.83708 399.707 10.1338C404.163 13.4304 406.369 18.1187 406.324 24.1985C406.296 27.9744 405.377 31.1678 403.566 33.7786C401.755 36.3254 399.629 38.2619 397.187 39.5881C394.81 40.8508 392.5 41.6979 390.256 42.1295L390.249 43.0895C394.79 43.5707 398.875 45.0406 402.506 47.4992C406.136 49.9578 407.928 54.3231 407.882 60.5949C407.833 67.3147 405.269 72.2241 400.19 75.323C395.112 78.358 388.541 79.846 380.477 79.787L336.414 79.4647L336.529 63.7211ZM373.593 36.5355C375.449 36.549 376.828 36.0791 377.731 35.1257C378.699 34.1087 379.19 32.5443 379.206 30.4324L379.231 26.9764C379.246 24.8645 378.778 23.325 377.825 22.358C376.936 21.3275 375.564 20.8055 373.708 20.7919L368.524 20.754L368.409 36.4975L373.593 36.5355ZM374.064 63.9956C375.92 64.0092 377.3 63.5393 378.203 62.5859C379.17 61.5689 379.661 60.0045 379.677 57.8925L379.708 53.6686C379.723 51.5567 379.254 50.0172 378.302 49.0502C377.413 48.0197 376.041 47.4977 374.185 47.4841L368.329 47.4413L368.208 63.9528L374.064 63.9956ZM452.049 25.589C453.329 25.5984 454.544 25.7353 455.694 25.9997C456.844 26.2641 457.801 26.5911 458.567 26.9807L458.432 45.3162C455.817 44.2091 453.005 43.6445 449.997 43.6225C445.965 43.593 442.853 44.6263 440.662 46.7223C438.47 48.8183 437.359 51.9463 437.329 56.1062L437.268 64.4579L445.908 64.5211L445.793 80.2647L410.849 80.0091L410.965 64.2655L415.189 64.2964L415.349 42.409L411.125 42.3781L411.24 26.6346L437.543 26.8269L437.492 33.8348C439.304 31.1599 441.366 29.127 443.681 27.7359C445.995 26.2807 448.785 25.5651 452.049 25.589ZM489.879 81.9312C480.791 81.8647 473.704 79.4448 468.619 74.6715C463.534 69.8342 461.025 62.8397 461.092 53.6879C461.159 44.5361 463.77 37.6111 468.924 32.9126C474.079 28.1502 481.201 25.8022 490.289 25.8687C499.312 25.9347 505.791 28.3502 509.724 33.1151C513.722 37.8164 515.695 43.655 515.644 50.6308L515.594 57.5426L484.49 57.3151L484.486 57.8911C484.469 60.2591 485.16 62.0242 486.56 63.1864C487.96 64.2847 490.292 64.8458 493.555 64.8696C497.459 64.8982 501.173 64.6374 504.697 64.0871C508.222 63.5369 511.299 62.8234 513.929 61.9466L513.817 77.3062C511.568 78.5058 508.264 79.6016 503.905 80.5938C499.61 81.5224 494.934 81.9682 489.879 81.9312ZM495.703 46.8369L495.712 45.6849C495.728 43.509 495.259 41.9375 494.306 40.9705C493.417 40.004 492.045 39.5139 490.189 39.5003C488.333 39.4868 486.921 39.9885 485.954 41.0054C485.051 41.9588 484.592 43.4915 484.576 45.6035L484.568 46.7554L495.703 46.8369ZM574.361 65.4607L574.246 81.2043L548.903 81.0189L548.951 74.4911C547.528 76.5287 545.53 78.3382 542.959 79.9194C540.451 81.5011 537.373 82.2786 533.725 82.2519C528.925 82.2168 525.159 80.9092 522.426 78.3292C519.693 75.7491 518.343 72.1231 518.377 67.4513C518.466 55.3556 528.783 49.2229 549.329 49.0532C549.153 46.8758 548.331 45.3978 546.865 44.619C545.399 43.7763 542.906 43.342 539.386 43.3163C536.506 43.2952 533.4 43.5925 530.068 44.2081C526.799 44.7603 523.786 45.5382 521.026 46.5421L521.155 28.8786C524.553 28.0714 528.238 27.4263 532.21 26.9434C536.181 26.4604 540.055 26.2327 543.831 26.2603C553.367 26.3301 560.17 28.1079 564.241 31.5938C568.311 35.0796 570.32 40.4385 570.267 47.6703L570.137 65.4298L574.361 65.4607ZM549.067 58.5555C546.187 58.5344 543.944 58.902 542.339 59.6583C540.797 60.4151 540.02 61.6894 540.007 63.4814C539.999 64.5693 540.312 65.4676 540.947 66.1763C541.646 66.8214 542.604 67.1485 543.82 67.1573C545.484 67.1695 546.769 66.4749 547.675 65.0735C548.582 63.6721 549.044 61.6914 549.063 59.1315L549.067 58.5555ZM601.042 82.7443C594.258 82.6947 589.15 81.0253 585.718 77.7361C582.351 74.3834 580.695 68.8031 580.753 60.9953L580.88 43.6198L576.656 43.5889L576.771 27.8453C579.203 27.8631 581.031 27.2684 582.256 26.0614C583.481 24.7903 584.102 23.0668 584.118 20.8909L584.15 16.571L604.501 16.7198L604.418 28.0475L617.378 28.1423L617.263 43.8859L604.303 43.7911L604.188 59.5347C604.172 61.6466 604.609 63.2179 605.497 64.2484C606.45 65.2154 607.855 65.7057 609.711 65.7192C612.143 65.737 614.801 65.4685 617.685 64.9135L617.575 79.9851C615.778 80.676 613.341 81.2982 610.265 81.8517C607.252 82.4697 604.178 82.7672 601.042 82.7443ZM684.509 66.2663L684.394 82.0099L654.059 81.788L654.174 66.0445L658.206 66.074L658.321 50.3304C658.337 48.2184 657.9 46.6792 657.011 45.7127C656.122 44.6821 654.782 44.1603 652.99 44.1472C649.15 44.1191 647.215 46.153 647.185 50.2489L647.07 65.9925L651.102 66.022L650.987 81.7656L620.652 81.5437L620.767 65.8001L624.991 65.831L625.307 22.6322L621.083 22.6013L621.198 6.85769L647.501 7.05008L647.291 35.8493C649.68 32.9227 652.256 30.7335 655.019 29.2817C657.782 27.8298 660.987 27.1173 664.635 27.1439C669.947 27.1828 673.903 28.8758 676.502 32.2229C679.166 35.5704 680.476 40.1561 680.434 45.98L680.285 66.2355L684.509 66.2663ZM716.091 83.5858C707.003 83.5193 699.917 81.0994 694.832 76.3261C689.747 71.4888 687.238 64.4943 687.305 55.3425C687.372 46.1907 689.983 39.2657 695.137 34.5672C700.292 29.8048 707.414 27.4568 716.501 27.5233C725.525 27.5893 732.004 30.0048 735.937 34.7697C739.935 39.471 741.908 45.3096 741.857 52.2854L741.806 59.1972L710.703 58.9697L710.699 59.5457C710.682 61.9137 711.373 63.6788 712.772 64.841C714.172 65.9393 716.504 66.5004 719.768 66.5242C723.672 66.5528 727.386 66.292 730.91 65.7417C734.434 65.1915 737.512 64.478 740.142 63.6012L740.03 78.9608C737.781 80.1604 734.477 81.2562 730.117 82.2484C725.822 83.177 721.147 83.6228 716.091 83.5858ZM721.916 48.4915L721.924 47.3395C721.94 45.1636 721.472 43.5921 720.519 42.6251C719.63 41.6586 718.258 41.1685 716.402 41.1549C714.546 41.1414 713.134 41.6431 712.166 42.66C711.263 43.6134 710.804 45.1461 710.789 47.258L710.78 48.41L721.916 48.4915Z" fill="#128756"/>
</svg>
